<?xml version="1.0" standalone="no"?>
<!DOCTYPE svg PUBLIC "-//W3C//DTD SVG 20010904//EN"
 "http://www.w3.org/TR/2001/REC-SVG-20010904/DTD/svg10.dtd">
<svg version="1.0" xmlns="http://www.w3.org/2000/svg"
 width="150.000000pt" height="150.000000pt" viewBox="0 0 150.000000 150.000000"
 preserveAspectRatio="xMidYMid meet">
<metadata>
Created by potrace 1.14, written by Peter Selinger 2001-2017
</metadata>
<g transform="translate(0.000000,150.000000) scale(0.100000,-0.100000)"
fill="#000000" stroke="none">
<path d="M665 1491 c-271 -34 -522 -234 -620 -494 -14 -37 -25 -72 -25 -77 0
-6 57 -10 144 -10 l144 0 27 56 c33 68 122 159 191 196 141 76 312 77 460 2
66 -33 162 -132 198 -202 l26 -52 134 0 c73 0 135 3 139 6 14 14 -59 179 -114
261 -36 52 -130 146 -184 183 -148 102 -348 152 -520 131z m308 -55 c118 -39
173 -70 246 -136 9 -8 31 -26 49 -38 17 -13 32 -28 32 -33 0 -6 -4 -7 -10 -4
-6 3 -7 -1 -3 -10 4 -12 8 -13 13 -5 5 8 20 -4 44 -35 28 -38 34 -51 25 -62
-9 -11 -9 -12 4 -7 16 6 27 -9 47 -62 9 -22 8 -25 -3 -16 -11 9 -14 8 -14 -3
0 -8 8 -15 17 -15 10 0 21 -13 27 -35 l11 -35 -113 0 -113 0 2 38 c2 32 -1 38
-18 40 -12 0 -16 -2 -10 -6 6 -4 14 -18 18 -32 6 -23 5 -23 -6 -6 -62 90 -69
105 -58 125 9 17 8 20 -5 15 -8 -3 -12 -10 -9 -15 15 -24 -18 -4 -47 29 -18
20 -34 36 -36 34 -9 -7 -63 30 -57 40 4 6 3 8 -3 5 -5 -3 -41 5 -79 18 -85 30
-221 34 -305 8 -30 -9 -62 -16 -73 -15 -10 0 -16 -2 -13 -5 4 -3 -20 -23 -53
-44 -70 -45 -124 -102 -165 -174 l-31 -53 -112 -1 c-131 0 -125 -10 -66 118
29 63 36 72 47 59 9 -12 17 -13 32 -7 19 9 19 9 -2 5 -89 -16 57 163 204 252
30 18 59 30 64 27 5 -4 9 -2 9 4 0 10 75 37 160 57 87 21 258 11 353 -20z"/>
<path d="M665 1450 c-67 -10 -164 -38 -193 -56 -12 -8 -26 -12 -31 -9 -5 2
-12 -2 -15 -11 -4 -9 -9 -14 -13 -11 -3 4 -19 -5 -35 -18 -16 -14 -35 -22 -41
-18 -7 3 -9 3 -5 -2 8 -9 -42 -52 -55 -47 -5 1 -6 -2 -2 -8 3 -5 -1 -13 -9
-16 -17 -6 -22 -24 -8 -24 4 0 26 16 48 36 54 50 112 86 126 78 6 -4 8 -3 5 3
-9 14 69 46 174 72 98 24 201 22 314 -4 69 -16 175 -62 175 -77 0 -4 3 -7 8
-7 20 3 34 -5 81 -47 29 -26 55 -43 59 -39 4 3 -11 22 -33 41 -55 48 -63 54
-73 54 -5 0 -15 7 -22 15 -16 20 -84 50 -168 74 -74 22 -210 32 -287 21z"/>
<path d="M625 1409 c-33 -6 -65 -15 -72 -21 -7 -5 -18 -6 -24 -2 -7 4 -9 3 -6
-3 7 -11 -37 -28 -62 -24 -7 1 -10 -2 -7 -7 3 -5 -13 -17 -35 -27 -22 -10 -51
-30 -66 -44 -15 -14 -23 -19 -19 -11 5 8 -4 2 -18 -14 -15 -17 -24 -36 -21
-44 3 -7 5 -16 5 -18 0 -12 26 1 82 44 84 63 169 99 278 119 83 15 98 15 191
0 109 -18 254 -80 289 -124 9 -12 21 -19 25 -15 5 4 5 2 2 -4 -3 -6 3 -18 13
-27 19 -16 21 -15 36 8 15 23 15 26 -4 49 -11 14 -22 23 -24 20 -3 -2 -11 3
-19 13 -12 15 -12 16 1 9 8 -4 4 1 -10 12 -14 12 -26 19 -29 17 -2 -3 -29 9
-60 25 -31 17 -62 30 -69 30 -7 0 -10 5 -6 12 4 6 3 8 -3 5 -6 -4 -30 0 -54 9
-55 19 -233 27 -314 13z m263 -25 c87 -18 167 -48 198 -76 11 -10 24 -18 29
-18 13 0 95 -70 95 -82 0 -6 -8 -1 -19 10 -10 12 -21 19 -25 15 -3 -3 -6 -1
-6 5 0 19 -134 92 -215 118 -206 65 -449 15 -597 -125 -21 -19 -38 -31 -38
-26 0 20 100 99 166 130 130 62 269 79 412 49z"/>
<path d="M635 1340 c-105 -21 -215 -80 -288 -154 -39 -39 -26 -45 15 -7 34 33
139 101 154 101 5 0 -13 -14 -41 -30 -41 -24 -186 -148 -149 -127 6 4 21 -3
32 -14 12 -11 22 -15 22 -10 0 6 -8 14 -17 19 -14 8 -11 14 22 43 93 82 174
119 306 139 73 11 95 10 164 -4 87 -18 185 -60 225 -96 l25 -22 -35 21 c-137
83 -266 111 -407 87 -80 -14 -206 -73 -252 -118 -37 -36 -40 -52 -6 -36 13 6
23 16 22 22 -1 6 6 10 17 8 10 -2 15 1 12 7 -8 12 28 33 39 23 5 -4 4 -1 0 7
-6 11 -4 13 9 8 9 -4 15 -3 12 2 -7 11 22 23 36 14 7 -4 8 -1 3 7 -6 10 -3 12
13 8 12 -4 20 -3 17 2 -9 14 87 34 169 34 96 1 160 -10 150 -26 -4 -7 -3 -8 4
-4 6 4 23 4 37 0 21 -5 24 -9 13 -16 -10 -8 -9 -8 5 -4 21 7 69 -13 61 -26 -3
-5 -2 -8 3 -7 16 4 43 -13 36 -24 -3 -6 -1 -7 5 -3 7 4 22 -4 36 -18 13 -14
29 -26 36 -26 9 0 6 8 -8 23 -12 13 -22 27 -22 33 0 5 6 2 13 -7 7 -9 23 -21
37 -28 41 -20 -78 87 -121 110 -21 10 -39 22 -39 24 0 15 105 -51 159 -100 23
-21 30 -24 22 -10 -17 32 -48 65 -60 65 -6 0 -11 3 -11 8 0 14 -95 60 -178 86
-87 27 -208 34 -297 16z m110 -20 c-68 -5 -139 -15 -164 -24 -24 -9 -46 -14
-48 -12 -4 4 70 30 112 39 11 3 65 4 120 4 l100 0 -120 -7z m199 -16 c26 -9
45 -18 43 -20 -2 -2 -28 5 -58 15 -30 11 -49 20 -43 20 6 1 32 -6 58 -15z"/>
<path d="M220 1221 c0 -6 4 -13 10 -16 6 -3 7 1 4 9 -7 18 -14 21 -14 7z"/>
<path d="M1236 1204 c-4 -9 -4 -19 -1 -22 2 -3 7 3 11 12 4 9 4 19 1 22 -2 3
-7 -3 -11 -12z"/>
<path d="M1261 1194 c0 -11 3 -14 6 -6 3 7 2 16 -1 19 -3 4 -6 -2 -5 -13z"/>
<path d="M1306 1183 c-6 -14 -5 -15 5 -6 7 7 10 15 7 18 -3 3 -9 -2 -12 -12z"/>
<path d="M220 1164 c-12 -31 -12 -37 -1 -30 5 4 11 0 13 -6 3 -7 4 4 4 24 -1
45 -3 46 -16 12z"/>
<path d="M182 1159 c-7 -11 -11 -23 -9 -25 7 -7 29 24 25 36 -2 6 -9 1 -16
-11z"/>
<path d="M1320 1163 c0 -6 5 -15 10 -18 6 -3 11 -16 11 -28 1 -17 2 -18 6 -4
3 10 10 14 16 11 7 -4 5 -1 -3 7 -8 8 -20 21 -27 29 -8 10 -12 11 -13 3z"/>
<path d="M1280 1135 c0 -5 5 -17 10 -25 5 -8 10 -10 10 -5 0 6 -5 17 -10 25
-5 8 -10 11 -10 5z"/>
<path d="M1310 1125 c0 -8 4 -15 10 -15 5 0 7 7 4 15 -4 8 -8 15 -10 15 -2 0
-4 -7 -4 -15z"/>
<path d="M320 1096 c0 -21 20 -30 33 -17 9 9 8 14 -3 21 -21 14 -30 12 -30 -4z"/>
<path d="M137 1065 c6 -28 5 -29 -12 -15 -17 14 -18 14 -5 -10 13 -24 13 -24
23 -3 6 14 5 27 -2 39 -9 16 -10 14 -4 -11z"/>
<path d="M1177 1073 c3 -7 6 -13 8 -13 2 0 5 6 8 13 3 8 -1 14 -8 14 -7 0 -11
-6 -8 -14z"/>
<path d="M1365 1065 c0 -13 3 -21 8 -18 4 2 7 10 7 18 0 8 -3 16 -7 18 -5 3
-8 -5 -8 -18z"/>
<path d="M245 991 c0 -14 5 -27 10 -28 6 -1 9 9 8 23 -2 28 5 30 23 7 13 -17
14 -17 7 1 -5 15 -3 17 8 11 8 -5 11 -4 6 1 -5 5 -21 9 -36 10 -22 1 -27 -3
-26 -25z m12 -23 c-3 -8 -6 -5 -6 6 -1 11 2 17 5 13 3 -3 4 -12 1 -19z"/>
<path d="M1251 1004 c0 -11 3 -14 6 -6 3 7 2 16 -1 19 -3 4 -6 -2 -5 -13z"/>
<path d="M1261 964 c0 -11 3 -14 6 -6 3 7 2 16 -1 19 -3 4 -6 -2 -5 -13z"/>
<path d="M850 1131 c-57 -6 -94 -24 -143 -70 -67 -61 -77 -128 -28 -196 64
-90 91 -158 91 -232 0 -58 -4 -75 -25 -104 -41 -55 -65 -69 -122 -69 -45 0
-55 -4 -69 -25 -25 -39 -15 -60 31 -63 67 -5 160 68 239 186 45 67 47 74 49
144 l2 75 -56 74 c-82 108 -89 121 -89 150 0 22 8 31 43 48 51 25 76 26 103 6
38 -29 74 -8 74 44 0 17 -30 45 -42 40 -2 -1 -28 -5 -58 -8z"/>
<path d="M509 1020 c-9 -5 -22 -23 -29 -39 -15 -37 0 -68 36 -77 60 -15 104
89 49 114 -31 14 -35 14 -56 2z"/>
<path d="M1040 998 c-34 -17 -45 -29 -47 -48 -1 -14 -6 -70 -11 -125 -5 -55
-9 -112 -7 -127 2 -27 21 -58 36 -58 12 0 27 32 34 69 8 45 55 228 65 257 11
27 4 54 -14 54 -6 0 -32 -10 -56 -22z"/>
<path d="M492 847 c-6 -7 -16 -35 -22 -62 -5 -28 -16 -68 -24 -90 -76 -225
-74 -237 29 -189 28 13 32 21 43 86 7 39 15 110 19 158 5 81 4 89 -15 99 -15
8 -23 7 -30 -2z"/>
<path d="M955 573 c-38 -41 -32 -83 13 -97 33 -11 58 1 72 34 15 37 6 64 -26
78 -32 15 -29 16 -59 -15z"/>
<path d="M25 572 c-6 -7 55 -151 90 -211 48 -82 183 -216 265 -264 110 -63
206 -90 349 -95 181 -6 305 29 448 126 130 88 269 280 298 411 l7 31 -139 0
-138 -1 -24 -52 c-31 -66 -129 -163 -202 -200 -88 -44 -198 -62 -289 -48 -149
23 -290 122 -354 249 l-26 51 -141 3 c-77 2 -142 2 -144 0z m288 -77 c15 -27
53 -75 83 -106 30 -30 52 -58 49 -61 -4 -3 2 -5 12 -5 10 1 17 -4 15 -11 -1
-8 2 -11 6 -8 5 3 33 -6 61 -20 29 -13 66 -28 83 -31 17 -3 25 -9 18 -13 -6
-4 38 -6 97 -5 120 3 188 19 272 65 29 16 57 27 62 24 5 -3 7 1 5 8 -3 7 18
32 45 56 27 23 47 42 43 42 -4 0 0 8 8 18 9 9 25 35 36 57 l20 40 111 -3 c119
-3 125 -7 99 -55 -7 -12 -13 -30 -15 -39 -2 -15 -38 -76 -80 -138 -9 -14 -45
-53 -79 -87 -47 -47 -67 -61 -81 -56 -10 3 -15 3 -11 -2 12 -13 -12 -35 -29
-28 -11 4 -14 2 -9 -6 11 -16 -127 -79 -217 -98 -85 -18 -295 -13 -342 7 -16
7 -34 14 -40 14 -21 2 -91 29 -105 40 -8 7 -32 21 -52 31 -21 11 -38 23 -38
27 0 5 -6 8 -13 8 -18 0 -59 45 -50 54 4 4 1 5 -7 2 -10 -3 -34 17 -65 55 -53
63 -72 96 -37 65 12 -10 24 -27 27 -37 4 -11 13 -19 21 -19 9 0 12 -5 8 -12
-5 -7 -3 -8 6 -3 11 7 9 12 -8 23 -12 8 -22 20 -22 28 0 13 -39 40 -52 36 -15
-4 -93 171 -84 187 2 3 53 6 113 6 l108 0 28 -50z"/>
<path d="M1370 520 c0 -5 5 -10 10 -10 6 0 10 5 10 10 0 6 -4 10 -10 10 -5 0
-10 -4 -10 -10z"/>
<path d="M1216 494 c-3 -8 -2 -13 3 -9 5 3 11 -1 14 -7 2 -7 8 -10 12 -6 4 4
1 14 -8 22 -13 14 -16 14 -21 0z"/>
<path d="M266 485 c-9 -26 -7 -32 5 -12 6 10 9 21 6 23 -2 3 -7 -2 -11 -11z"/>
<path d="M1400 489 c0 -5 5 -7 10 -4 6 3 10 8 10 11 0 2 -4 4 -10 4 -5 0 -10
-5 -10 -11z"/>
<path d="M314 457 c19 -25 22 -36 14 -51 -8 -14 -7 -17 1 -12 6 4 11 1 11 -8
0 -8 -5 -18 -11 -22 -6 -3 -8 -16 -5 -29 4 -14 0 -28 -9 -35 -24 -20 -18 -41
21 -77 20 -18 39 -33 42 -33 11 0 72 -45 72 -53 0 -4 -13 -1 -30 8 -16 9 -30
20 -30 26 0 6 -4 7 -10 4 -5 -3 -15 3 -22 15 -7 11 -18 20 -24 20 -7 0 -19 12
-29 26 -13 21 -19 24 -26 13 -4 -7 -11 -10 -15 -6 -4 3 -1 13 6 22 8 10 9 15
1 15 -6 0 -11 -2 -11 -4 0 -2 -3 -11 -6 -20 -4 -11 2 -19 21 -26 15 -6 25 -13
21 -17 -11 -11 15 -32 31 -26 10 4 14 2 10 -4 -4 -6 3 -13 14 -16 12 -3 18
-10 15 -15 -3 -5 2 -9 12 -8 9 0 16 -4 15 -10 -1 -6 4 -11 12 -11 21 0 95 -35
95 -44 0 -5 7 -5 17 -2 12 5 14 3 8 -7 -5 -8 -4 -11 3 -6 6 3 37 -1 69 -9 88
-24 251 -21 338 5 39 12 80 23 92 23 11 1 19 5 16 9 -4 7 12 12 30 9 4 0 7 4
7 10 0 6 7 8 16 5 8 -3 13 -2 10 3 -8 13 42 43 57 35 7 -4 9 -4 5 1 -9 9 9 35
24 35 5 0 6 -6 2 -12 -4 -7 4 -3 17 9 23 21 37 63 21 63 -4 -1 -25 -18 -46
-40 -48 -48 -177 -114 -266 -137 -103 -26 -246 -22 -350 11 -115 36 -112 35
-106 45 4 5 24 1 46 -10 98 -48 262 -62 393 -34 106 22 208 76 296 155 47 42
18 38 -32 -5 -22 -19 -47 -35 -54 -35 -7 0 -13 -4 -13 -8 0 -14 -102 -60 -180
-81 -99 -28 -230 -28 -326 -1 -80 22 -174 66 -174 81 0 6 -4 8 -8 5 -11 -7
-108 81 -100 90 4 3 22 -9 40 -27 19 -19 38 -36 43 -38 6 -2 26 -14 45 -27
103 -68 262 -102 399 -85 44 6 96 17 115 25 19 8 37 12 40 8 3 -3 6 -1 6 5 0
6 12 14 27 18 15 3 45 21 67 38 22 18 44 33 48 33 4 1 13 2 20 3 6 0 8 4 5 8
-12 12 23 41 44 36 10 -3 19 0 19 6 0 5 -7 8 -15 5 -8 -4 -15 -1 -15 5 0 6
-28 -11 -61 -39 -120 -96 -233 -135 -389 -134 -86 1 -118 6 -178 27 -106 38
-266 144 -234 154 6 3 9 9 6 15 -4 6 0 14 7 19 20 13 35 11 22 -2 -15 -15 57
-76 141 -118 175 -89 376 -77 545 32 36 24 74 51 84 61 10 10 20 16 23 13 9
-9 -101 -90 -162 -119 -200 -94 -450 -63 -608 76 -29 26 -46 33 -46 18 0 -15
96 -81 162 -112 68 -32 178 -60 240 -60 124 0 296 63 384 143 43 39 46 45 34
64 -12 18 -12 24 0 38 10 13 15 13 21 3 5 -7 9 -8 9 -3 0 6 -4 17 -10 25 -5 9
-5 19 1 26 7 8 6 14 -1 19 -10 6 -11 5 -14 -14 0 -5 -12 -19 -25 -30 -19 -17
-21 -23 -11 -36 10 -12 6 -21 -26 -50 -39 -37 -184 -115 -213 -115 -9 0 9 11
39 23 132 55 208 115 179 141 -9 8 -10 8 -5 -1 8 -14 -64 -75 -82 -68 -8 3
-10 0 -6 -7 5 -8 2 -9 -9 -5 -10 4 -16 2 -14 -6 1 -7 -8 -12 -20 -11 -12 0
-20 -3 -17 -7 6 -11 -33 -22 -47 -13 -7 4 -9 3 -5 -4 9 -14 -79 -32 -159 -32
-84 0 -173 19 -154 32 11 7 9 8 -5 4 -19 -7 -76 13 -76 26 0 5 -6 8 -13 8 -21
0 -99 59 -92 70 3 5 0 12 -6 16 -7 4 -9 3 -6 -3 4 -7 -8 -10 -33 -9 -36 1 -38
2 -24 17 10 11 12 19 5 24 -6 3 -11 11 -11 17 0 6 7 5 17 -3 9 -8 1 7 -18 33
-19 26 -38 47 -42 47 -4 1 3 -14 17 -32z m856 -72 c-7 -8 -17 -15 -23 -15 -6
0 -2 8 9 19 22 21 33 19 14 -4z m-720 -94 c28 -22 74 -48 102 -59 29 -11 60
-22 68 -25 13 -5 13 -5 0 -6 -27 -1 -124 44 -177 83 -29 21 -53 40 -53 42 0
10 14 2 60 -35z m780 -75 c0 -2 -8 -10 -17 -17 -16 -13 -17 -12 -4 4 13 16 21
21 21 13z m-557 -23 c-7 -2 -19 -2 -25 0 -7 3 -2 5 12 5 14 0 19 -2 13 -5z
m182 -3 c-16 -4 -61 -7 -100 -7 l-70 1 75 6 c41 4 86 7 100 7 22 1 21 0 -5 -7z"/>
<path d="M100 461 c0 -6 5 -13 12 -17 7 -5 8 -3 3 6 -5 9 -2 10 13 6 11 -4 23
-2 27 4 4 6 -6 10 -24 10 -17 0 -31 -4 -31 -9z"/>
<path d="M1366 454 c-10 -26 -7 -29 10 -8 8 10 13 13 9 7 -3 -7 -3 -18 1 -25
5 -8 10 -6 14 8 4 10 6 22 3 27 -7 13 -31 8 -37 -9z"/>
<path d="M1371 404 c0 -11 3 -14 6 -6 3 7 2 16 -1 19 -3 4 -6 -2 -5 -13z"/>
<path d="M130 395 c0 -2 6 -8 13 -14 10 -8 14 -7 14 2 0 8 -6 14 -14 14 -7 0
-13 -1 -13 -2z"/>
<path d="M1301 363 c7 -10 15 -20 16 -22 2 -2 3 3 3 11 0 9 -7 19 -16 22 -15
6 -15 4 -3 -11z"/>
<path d="M200 350 c6 -11 13 -20 16 -20 2 0 0 9 -6 20 -6 11 -13 20 -16 20 -2
0 0 -9 6 -20z"/>
<path d="M1349 353 c-13 -16 -12 -17 4 -4 16 13 21 21 13 21 -2 0 -10 -8 -17
-17z"/>
<path d="M1180 351 c0 -6 4 -13 10 -16 6 -3 7 1 4 9 -7 18 -14 21 -14 7z"/>
<path d="M1290 315 c-2 -11 -2 -26 -1 -34 2 -8 -2 -10 -10 -5 -8 4 -10 3 -5
-4 10 -16 14 -15 24 6 5 9 6 26 1 37 l-8 20 -1 -20z"/>
<path d="M1240 270 c0 -5 5 -10 11 -10 5 0 7 -4 4 -10 -3 -5 -1 -10 4 -10 13
0 13 3 5 24 -7 18 -24 22 -24 6z"/>
</g>
</svg>
